<svg xmlns="http://www.w3.org/2000/svg" viewBox="0 0 198.43 198.43"><defs><style>.cls-1{fill:#399126;}.cls-2{fill:#72ab1c;}.cls-3{fill:#f0b503;}.cls-4{fill:#e42f01;}.cls-5{fill:#151011;}.cls-6{fill:#fff;}.cls-7{fill:#4095af;}.cls-8{fill:#7eccd4;}</style></defs><g id="semel"><g id="semelColor"><path class="cls-1" d="M167.79,145.81l-.08-.08a.54.54,0,0,0-.24-.14,2.12,2.12,0,0,0-1.08-.28,4.29,4.29,0,0,0-2.51,1.08h0c-1,.82-1.93,1.5-2.76,2.11a1.66,1.66,0,0,0-.93-.61h0c-1-.21-1.86.74-2.23,1.3v0c-.68,1-1.34,2-2,2.92a2,2,0,0,0-.22-.41,1.45,1.45,0,0,0-.87-.53c-.81-.2-1.67.37-2.46,1.66-.64.84-1.31,1.68-2,2.49a1.39,1.39,0,0,0-1.09-.5h-.12a1.91,1.91,0,0,0-1.69,1.21,40.55,40.55,0,0,1-3.66,6.15.55.55,0,0,0,0,.57l.11.21a.55.55,0,0,0,.48.3c2.49,0,5.09,0,7.73-.15a2.27,2.27,0,0,0,2-1.08,1.33,1.33,0,0,0,.17-.45,1.26,1.26,0,0,0-.12-.82c1.13-.34,2.31-.71,3.5-1.12h0c.58-.14,2.49-.67,2.57-1.91a1.7,1.7,0,0,0,0-.24,1.36,1.36,0,0,0-.62-1c1.24-.46,2.46-1,3.67-1.46h0a4.21,4.21,0,0,0,1.39-.89,1.5,1.5,0,0,0,.44-1.15.28.28,0,0,0,0-.09,1.33,1.33,0,0,0-.49-.87c.8-.76,1.63-1.59,2.53-2.52h0a5.42,5.42,0,0,0,1-1.36,2,2,0,0,0-.09-2.09A.5.5,0,0,0,167.79,145.81Z"/><path class="cls-1" d="M181,118.14a.58.58,0,0,0-.24-.14l-.17-.07a.54.54,0,0,0-.25-.06,2.94,2.94,0,0,0-.51-.05,3.65,3.65,0,0,0-2.86,1.89h0c-.64,1-1.32,1.94-2,2.92a2,2,0,0,0-1.29-.4h0c-.89.07-1.56.8-1.79,2,0,0,0,0,0,0-.23,1.15-.49,2.34-.78,3.53a1.82,1.82,0,0,0-1.61-.74c-1,0-1.65.86-1.87,2.39-.29,1-.59,2.05-.89,3a1.65,1.65,0,0,0-1.46-.26,1.62,1.62,0,0,0-1.37,1.79,56.09,56.09,0,0,1-.47,7.51.52.52,0,0,0,.2.48l.26.22a.52.52,0,0,0,.34.12h.13c2.8-.67,5.59-1.44,8.29-2.27h0a2.5,2.5,0,0,0,1.1-.64,1.52,1.52,0,0,0,.44-1.19.54.54,0,0,0,0-.18,1.59,1.59,0,0,0-.64-1.09c1.05-.72,2.07-1.43,3-2.12h0a4.57,4.57,0,0,0,1.61-1.41,1.39,1.39,0,0,0,.15-1.36.94.94,0,0,0-.1-.23A1.79,1.79,0,0,0,177,131c1.11-.85,2.15-1.69,3.16-2.55h0a4.58,4.58,0,0,0,.89-1,1.52,1.52,0,0,0,.11-1.57,1.73,1.73,0,0,0-1-.84c.56-1.16,1-2.21,1.47-3.21a3.63,3.63,0,0,0,.31-.85A2.45,2.45,0,0,0,181,118.14Z"/><path class="cls-1" d="M188.16,94.71a1.73,1.73,0,0,0-.39-2.09h0a2,2,0,0,0-1.17-.42h-.15c.11-1.13.2-2.32.27-3.58a.43.43,0,0,1,0,0c.08-1-.22-2.83-1.89-3.24a.6.6,0,0,0-.27-.06h0l-.14,0a.54.54,0,0,0-.25,0c-1.9.21-2.51,2.16-2.67,2.8h0c-.31,1.21-.63,2.33-1,3.4a2.54,2.54,0,0,0-1.41,0h0A2.09,2.09,0,0,0,178,94h0c.19,1.18.35,2.37.49,3.63a2,2,0,0,0-1.91-.24c-1,.31-1.39,1.38-1,2.9.09,1.06.17,2.12.22,3.18a2.1,2.1,0,0,0-.61-.09,1.86,1.86,0,0,0-1,.26,1.57,1.57,0,0,0-.75,2.18,76.81,76.81,0,0,1,2.58,7.41.51.51,0,0,0,.34.36l.37.13a.47.47,0,0,0,.17,0,.53.53,0,0,0,.27-.08c2.62-1.47,5.22-3.08,7.68-4.76a2.6,2.6,0,0,0,.78-.77,1.56,1.56,0,0,0,.07-1.51,1.41,1.41,0,0,0-.13-.24,1.77,1.77,0,0,0-1.08-.77c.81-1,1.54-2,2.24-3h0a6.25,6.25,0,0,0,1-1.48,1.52,1.52,0,0,0-.27-1.75l0,0a1.8,1.8,0,0,0-1.37-.53,2.8,2.8,0,0,0-.4,0c.75-1.12,1.48-2.26,2.18-3.41A2.49,2.49,0,0,0,188.16,94.71Z"/><path class="cls-1" d="M173.52,68.22c-.79.63-.76,1.79.1,3.08.48,1,.93,1.92,1.36,2.88a2,2,0,0,0-1.44.73,1.59,1.59,0,0,0,.09,2.29c1.78,1.91,3.51,3.94,5.16,6a.55.55,0,0,0,.43.21h0l.39,0a.54.54,0,0,0,.4-.19,88.41,88.41,0,0,0,5.41-7.08,1.79,1.79,0,0,0,.34-.62,1.59,1.59,0,0,0-.44-1.86,1.89,1.89,0,0,0-1.48-.48c.32-1.15.62-2.33.9-3.5a4.82,4.82,0,0,0,.24-.92c.29-1.62-.39-2.18-.86-2.37a1.61,1.61,0,0,0-.74-.17,2.23,2.23,0,0,0-1.11.32c.27-1.37.49-2.68.66-4v0c.13-.77,0-2.19-1.12-2.57a1.93,1.93,0,0,0-1.35.06c-.39-1.2-.79-2.33-1.2-3.42a4.38,4.38,0,0,0-.57-1.15,2.45,2.45,0,0,0-2.36-1.22.5.5,0,0,0-.27,0l-.17.05a.56.56,0,0,0-.23.12c-1.08.56-1.56,1.84-1.27,3.49h0c.17,1.1.32,2.23.46,3.43a2,2,0,0,0-1.24.5l0,0a2.11,2.11,0,0,0-.08,2.67h0c.6,1,1.19,2.09,1.78,3.19a2.06,2.06,0,0,0-.48-.05A1.94,1.94,0,0,0,173.52,68.22Z"/><path class="cls-1" d="M153.92,31.06c.76,1,1.52,2,2.23,3a1.47,1.47,0,0,0-.69.75s0,0,0,0c-.38,1.14,1,2.26,1.26,2.47,1.13.89,2.16,1.73,3.12,2.55a1.45,1.45,0,0,0-1.19.91c-.54,1.15.85,2.34,1.51,2.83.87.79,1.73,1.6,2.55,2.4a1.56,1.56,0,0,0-.85,1.1,1.77,1.77,0,0,0,1,2c2.44,1.37,4.8,2.79,7,4.22a.61.61,0,0,0,.3.08l.18,0,.33-.12a.55.55,0,0,0,.34-.37,64.24,64.24,0,0,0,1.7-7.92h0a1.9,1.9,0,0,0-1.09-2.14,2.07,2.07,0,0,0-.88-.22,1.75,1.75,0,0,0-.75.17c-.25-1.16-.56-2.35-.9-3.56-.08-.57-.55-2.5-2-2.7a1.59,1.59,0,0,0-.34,0,1.66,1.66,0,0,0-1.3.64c-.44-1.27-.95-2.57-1.53-3.94h0a3,3,0,0,0-2.18-2h0l-.14,0a1.54,1.54,0,0,0-1.06.37c-.92-.93-1.93-1.92-3.07-3v0A5.06,5.06,0,0,0,154.35,27a1.91,1.91,0,0,0-.76.15.7.7,0,0,0-.28.12.58.58,0,0,0-.21.23c-.43.51-.77,1.57.79,3.53Z"/><path class="cls-1" d="M127.57,12.58h0c.88.48,1.78,1,2.7,1.6a1,1,0,0,0-.14.68v0c.18,1,1.85,1.6,1.85,1.59,1.13.47,2.19.92,3.2,1.37A.77.77,0,0,0,135,18a1.06,1.06,0,0,0-.27.81c0,1,1.54,1.76,2.15,2,.93.49,1.89,1,2.88,1.58l-.06.1a1.33,1.33,0,0,0-.17,1,2.07,2.07,0,0,0,1.5,1.54h0c2.63.86,5,1.7,7.22,2.56a.48.48,0,0,0,.2,0,.49.49,0,0,0,.32-.12l.23-.16a.54.54,0,0,0,.22-.52,45.86,45.86,0,0,0-1.82-7.44h0a2,2,0,0,0-1.61-1.51,1.53,1.53,0,0,0-1.38.24c-.7-1-1.43-1.89-2.19-2.78h0c-.36-.56-1.52-1.83-2.6-1.68a1.23,1.23,0,0,0-.94.5.82.82,0,0,0-.12.2c-.87-.92-1.77-1.79-2.69-2.6h0a3.61,3.61,0,0,0-2.1-1l-.3,0a1.31,1.31,0,0,0-.78.46c-1.07-.48-2.19-.95-3.34-1.4v0a10.34,10.34,0,0,0-3.21-.82,1.76,1.76,0,0,0-1,.23.6.6,0,0,0-.22.16l0,.07a.48.48,0,0,0-.15.33C124.58,10.69,125.44,11.51,127.57,12.58Z"/><path class="cls-1" d="M147.76,32.41a1.2,1.2,0,0,0-.42.07,1.37,1.37,0,0,0-.73.5,2,2,0,0,0-.23.43c-.66-.86-1.34-1.7-2-2.51h0c-.35-.48-1.41-1.27-2.25-.91a1.48,1.48,0,0,0-.68.64c-.84-.46-1.69-.91-2.53-1.35h0a3.85,3.85,0,0,0-1.74-.52,1.54,1.54,0,0,0-1.35.67.52.52,0,0,0-.12.19.48.48,0,0,0-.07.24c-.32,1.32,1,2.43,1.38,2.75.74.58,1.44,1.18,2.14,1.79a1.53,1.53,0,0,0-.32.89v0A2,2,0,0,0,140.32,37L143,38a1.58,1.58,0,0,0-.64,1.14c-.13,1,.91,1.66,1.87,1.9l2.5,1a1.62,1.62,0,0,0-.35,1.18,1.45,1.45,0,0,0,1.5,1.4c2.45.22,4.88.51,7.22.85h.08a.56.56,0,0,0,.37-.15l.24-.23a.54.54,0,0,0,.17-.47,50.4,50.4,0,0,0-1.48-7.23,1.74,1.74,0,0,0-1.65-1.4h-.11a1.56,1.56,0,0,0-1.16.5c-.57-.85-1.17-1.7-1.78-2.52h0C149.51,33.47,148.71,32.41,147.76,32.41Z"/><path class="cls-1" d="M125.27,24.54l1.91.52a1.41,1.41,0,0,0-.1.89A1.28,1.28,0,0,0,128.49,27h0c1.82-.05,3.73-.05,5.71,0h0a.57.57,0,0,0,.41-.19l.17-.2a.52.52,0,0,0,.1-.49A39.4,39.4,0,0,0,133,20.59a1.47,1.47,0,0,0-1.56-1,1.34,1.34,0,0,0-.9.45c-.5-.58-1-1.15-1.56-1.71a2.44,2.44,0,0,0-1.7-1.09,1,1,0,0,0-.49.11,1.18,1.18,0,0,0-.56.48,1.36,1.36,0,0,0-.1.21c-.57-.56-1.13-1.11-1.71-1.64h0a2.25,2.25,0,0,0-1.41-.66,1.1,1.1,0,0,0-.57.14,1.34,1.34,0,0,0-.44.46.13.13,0,0,0,0,.05c-.67-.27-1.34-.53-2-.77a3.38,3.38,0,0,0-1.22-.27,1.37,1.37,0,0,0-1.29.67.41.41,0,0,0-.1.21.43.43,0,0,0,0,.25c-.12,1.11,1,1.89,1.41,2.12h0c.59.37,1.16.74,1.75,1.14a1.45,1.45,0,0,0-.13.68.08.08,0,0,1,0,0,1.64,1.64,0,0,0,1.42,1.3h0l2,.48a1.33,1.33,0,0,0-.28.89C123.54,23.86,124.23,24.41,125.27,24.54Z"/><path class="cls-1" d="M120.61,11.32l.09-.2a.55.55,0,0,0,0-.51,13.26,13.26,0,0,0-3.2-2.68,16.56,16.56,0,0,1-2.34-1.82h0A1.47,1.47,0,0,0,114,5.6a1.48,1.48,0,0,0-.58.13,1.5,1.5,0,0,0-.5.39.84.84,0,0,0-.13.21c-.57-.31-1.13-.62-1.7-.91A2.94,2.94,0,0,0,109.79,5a1.17,1.17,0,0,0-.81.3,1.24,1.24,0,0,0-.34.51,1.55,1.55,0,0,0,0,.21c-.59-.29-1.19-.55-1.78-.8h0a2.69,2.69,0,0,0-.94-.21,1.1,1.1,0,0,0-1.14.76.57.57,0,0,0,0,.14c-.61,0-1.2,0-1.81,0h-.16c-1,0-1.69.38-1.88,1a.58.58,0,0,0,0,.29.74.74,0,0,0,0,.26,2.09,2.09,0,0,0,1.8,1.36h0c.56.12,1.12.26,1.68.4a1.35,1.35,0,0,0,.09.55l0,0a1.36,1.36,0,0,0,1.34.71l.28,0,1.68-.18a1.23,1.23,0,0,0,0,.72c.1.29.4.76,1.32.76a2.7,2.7,0,0,0,.58,0l1.63-.13a1.18,1.18,0,0,0,.18.7,1.08,1.08,0,0,0,1,.59,1.28,1.28,0,0,0,.5-.09l.52,0a45.86,45.86,0,0,0,6.79-1A.55.55,0,0,0,120.61,11.32Z"/><path class="cls-1" d="M158.79,65.65a1.22,1.22,0,0,0,0,1,1.77,1.77,0,0,0,1,.9h0c2.45.94,4.95,2,7.42,3.23a.67.67,0,0,0,.24,0,.55.55,0,0,0,.18,0l.36-.14a.57.57,0,0,0,.34-.34,71.25,71.25,0,0,0,1.9-7.41,1.63,1.63,0,0,0-1.12-2,1.87,1.87,0,0,0-.61-.11,2.18,2.18,0,0,0-.94.23c-.17-1-.37-2-.58-3,0-.57-.34-2.36-1.83-2.39h-.09a2,2,0,0,0-1.49.76c-.25-1.09-.53-2.17-.82-3.23h0a2.06,2.06,0,0,0-1.86-1.67,1.75,1.75,0,0,0-1.21.53c-.7-.74-1.4-1.47-2.11-2.18a3.27,3.27,0,0,0-2.22-1.08,2.23,2.23,0,0,0-1.06.27.51.51,0,0,0-.22.11l-.12.11a.38.38,0,0,0-.17.16,2.54,2.54,0,0,0-.07,3.23c.48.76.94,1.54,1.39,2.32a2,2,0,0,0-.86.75l0,0a1.35,1.35,0,0,0-.07,1.25,2.36,2.36,0,0,0,.91,1c.82.54,1.63,1.09,2.48,1.68a2,2,0,0,0-1.28.86,1.21,1.21,0,0,0-.22,1A2.75,2.75,0,0,0,157.47,63c.75.54,1.49,1.1,2.23,1.68A1.79,1.79,0,0,0,158.79,65.65Z"/><path class="cls-1" d="M171.64,83a2.46,2.46,0,0,0-1.28.38c.11-1.1.2-2.21.27-3.32v0a1.94,1.94,0,0,0-1.39-2.17h0a1.64,1.64,0,0,0-.42,0,2.06,2.06,0,0,0-1,.23c-.47-.93-1-1.85-1.45-2.73a3.36,3.36,0,0,0-.38-.58,2.85,2.85,0,0,0-2.79-1.16.47.47,0,0,0-.23,0l-.19.06a.44.44,0,0,0-.19.1,2.4,2.4,0,0,0-1.2,3.07q.36,1.29.69,2.58a2.31,2.31,0,0,0-1.16.44s0,0,0,0a1.26,1.26,0,0,0-.49.9,2.12,2.12,0,0,0,.65,1.49h0c.68.74,1.37,1.51,2.05,2.31a2.22,2.22,0,0,0-1.59.43,1.1,1.1,0,0,0-.5.85,2.54,2.54,0,0,0,1,1.91c.63.78,1.21,1.52,1.75,2.24a1.82,1.82,0,0,0-1.19.64,1.2,1.2,0,0,0-.33.93,1.8,1.8,0,0,0,.78,1.19h0c2.23,1.67,4.38,3.47,6.42,5.33a.55.55,0,0,0,.36.15h0l.4,0a.57.57,0,0,0,.42-.22c1.52-2.13,2.94-4.31,4.22-6.46a1.39,1.39,0,0,0,.26-.56,1.47,1.47,0,0,0-.7-1.72,2.16,2.16,0,0,0-1.6-.33c.16-1,.29-2,.42-3a4.13,4.13,0,0,0,.12-.63c.14-1.19-.29-2-1.15-2.24A1.82,1.82,0,0,0,171.64,83Z"/><path class="cls-1" d="M171,113.05a1.63,1.63,0,0,0-.62-2,2.33,2.33,0,0,0-1.81-.29c.4-1,.79-2,1.19-3.07a1.15,1.15,0,0,0,.11-.36,1.8,1.8,0,0,0-.8-2.13h0a2.55,2.55,0,0,0-1-.27,1.86,1.86,0,0,0-.34,0c-.21-1-.42-2-.65-3a3.11,3.11,0,0,0-2.56-2.58.45.45,0,0,0-.23,0h-.21a.73.73,0,0,0-.22,0,2.36,2.36,0,0,0-2,2.61h0c0,.87,0,1.75,0,2.63a2.63,2.63,0,0,0-1.21.09s0,0,0,0a1.24,1.24,0,0,0-.7.72,2.16,2.16,0,0,0,.22,1.62v0c.47.92.92,1.85,1.32,2.77a2.41,2.41,0,0,0-1.56,0,1.12,1.12,0,0,0-.7.66,2.64,2.64,0,0,0,.45,2.13c.37.92.71,1.79,1,2.63a1.75,1.75,0,0,0-1.22.28,1.26,1.26,0,0,0-.58.79,1.84,1.84,0,0,0,.4,1.36h0a64.93,64.93,0,0,1,4.21,6.85.57.57,0,0,0,.34.27l.36.08a.32.32,0,0,0,.14,0,.61.61,0,0,0,.34-.12c1.9-1.53,3.84-3.2,5.74-5a1.56,1.56,0,0,0,.27-2.25,1.92,1.92,0,0,0-1.36-.79c.44-.92.86-1.83,1.27-2.75A3.07,3.07,0,0,0,171,113.05Z"/><path class="cls-1" d="M161.31,133.42a1.67,1.67,0,0,0-.22-1.82h0A2,2,0,0,0,160,131c.14-1,.27-2,.38-3a3,3,0,0,0-1.49-3.21.56.56,0,0,0-.21-.09l-.17-.06a.6.6,0,0,0-.22,0,2.25,2.25,0,0,0-2.53,1.94s0,0,0,0c-.23.79-.49,1.62-.79,2.52a1.83,1.83,0,0,0-.87-.21h-.22c-.81.12-1.24.91-1.11,2.08v0c.12,1,.2,2,.26,3a1.68,1.68,0,0,0-1.33-.39,1.15,1.15,0,0,0-.75.41,2.89,2.89,0,0,0-.33,2.14q0,1.41,0,2.82a1.36,1.36,0,0,0-1.13,0,1.52,1.52,0,0,0-.84,1.93h0a45.67,45.67,0,0,1,.9,7.29.59.59,0,0,0,.25.43l.25.16a.53.53,0,0,0,.3.09.66.66,0,0,0,.23,0c2.26-1,4.47-2.11,6.59-3.19a1.68,1.68,0,0,0,1-2,1.63,1.63,0,0,0-.82-1.11c.69-.74,1.39-1.5,2.08-2.27h0a4.41,4.41,0,0,0,1-1.17,1.54,1.54,0,0,0-.06-1.61,1.78,1.78,0,0,0-1.42-.79c.71-.87,1.38-1.71,2-2.56A2.36,2.36,0,0,0,161.31,133.42Z"/><path class="cls-1" d="M143.41,157.34a3.93,3.93,0,0,0,1.16-.87,1.64,1.64,0,0,0,.47-1.28,1.46,1.46,0,0,0-.22-.67,1.34,1.34,0,0,0-.37-.41c.77-1,1.51-1.93,2.2-2.91a3.39,3.39,0,0,0,.57-.94,2.65,2.65,0,0,0-.08-2.75.51.51,0,0,0-.17-.22l-.1-.1a.59.59,0,0,0-.23-.14,1.8,1.8,0,0,0-1-.28,3.38,3.38,0,0,0-2.34,1.32h0c-.72.79-1.49,1.59-2.3,2.39a1.51,1.51,0,0,0-.9-.56c-.94-.15-1.65.79-2.05,1.6v0c-.54,1.07-1.14,2.16-1.78,3.23a1.59,1.59,0,0,0-.22-.35,1.22,1.22,0,0,0-.84-.44c-.76-.12-1.52.51-2.33,2-.7,1.06-1.38,2-2,2.85a1.29,1.29,0,0,0-1.11-.35,2.28,2.28,0,0,0-1.75,1.34c-.25.47-.5,1-.76,1.5a32.89,32.89,0,0,1-3.46,5.9.56.56,0,0,0-.05.64l.12.17a.54.54,0,0,0,.46.27h.13l8.16-1.89a2.42,2.42,0,0,0,2-1.17,1.34,1.34,0,0,0,.17-.5,1.3,1.3,0,0,0-.13-.78c1.2-.46,2.39-.93,3.52-1.4a5.19,5.19,0,0,0,2-1.1,1.49,1.49,0,0,0,.46-1v-.09a1.29,1.29,0,0,0-.44-1,1.24,1.24,0,0,0-.26-.19c1.31-.64,2.47-1.22,3.55-1.79Z"/><path class="cls-2" d="M17.64,86.53a.19.19,0,0,0,.09,0,.16.16,0,0,0,.13-.06,16.41,16.41,0,0,0,2.29-3.71,20.52,20.52,0,0,0,1.25-3.56,27,27,0,0,0,.68-7.09,38.26,38.26,0,0,0-1-7.46,40.89,40.89,0,0,0-2.76-8.43.11.11,0,0,0-.09-.06h0a.12.12,0,0,0-.1,0c-4.39,5.45-5.17,12.5-5,17.44C13.48,79.75,15.78,85.32,17.64,86.53Zm-3-23.76h0Zm.41-1.1.12-.28Z"/><path class="cls-2" d="M26.64,74.54h.05a24.55,24.55,0,0,0,4.1-2.14,26.46,26.46,0,0,0,3.06-2.27A21.1,21.1,0,0,0,38,65.23a17.2,17.2,0,0,0,2.24-5.63,17.89,17.89,0,0,0,0-7.21.15.15,0,0,0-.15-.13h0a16.61,16.61,0,0,0-7.65,2.86,17.46,17.46,0,0,0-4.9,5.12,16.13,16.13,0,0,0-2.36,6.53,14.27,14.27,0,0,0,0,3.69,12,12,0,0,0,1.28,4A.15.15,0,0,0,26.64,74.54Z"/><path class="cls-2" d="M24.18,57.63h0l.09,0a17.36,17.36,0,0,0,3.15-2.79,23.66,23.66,0,0,0,2.2-2.94,27.81,27.81,0,0,0,2.85-6.31,37,37,0,0,0,1.48-7,32.37,32.37,0,0,0-.06-8.39.2.2,0,0,0-.08-.12l-.09,0h0C32,30.62,28,35,25.37,40.85c-1.93,4.25-3.72,10.6-1.3,16.68A.14.14,0,0,0,24.18,57.63Z"/><path class="cls-2" d="M36.08,49.05h0a19.12,19.12,0,0,0,4-.87,21.21,21.21,0,0,0,3.17-1.31,19.51,19.51,0,0,0,4.83-3.46,20.53,20.53,0,0,0,3.5-4.6,23.17,23.17,0,0,0,2.43-6.36.13.13,0,0,0,0-.12.16.16,0,0,0-.12-.08,13.43,13.43,0,0,0-1.55-.09,16,16,0,0,0-5.47,1,18.08,18.08,0,0,0-5.67,3.34,16.61,16.61,0,0,0-4,5.17A14.86,14.86,0,0,0,36.05,45a11.48,11.48,0,0,0-.13,3.9A.16.16,0,0,0,36.08,49.05Z"/><path class="cls-2" d="M38.55,31.13h0a16.8,16.8,0,0,0,3.67-1.21,27,27,0,0,0,3-1.63,36.18,36.18,0,0,0,5.1-4,55.16,55.16,0,0,0,4.56-4.72,40.14,40.14,0,0,0,4.18-5.66.14.14,0,0,0,0-.17.15.15,0,0,0-.14-.08h0c-9.8.42-16,7.93-17.72,10.23C39.11,26.77,38,29.57,38.39,31A.15.15,0,0,0,38.55,31.13Z"/><path class="cls-2" d="M73.23,15.43a25,25,0,0,0-3.29.25,24,24,0,0,0-6.35,1.88,20.63,20.63,0,0,0-5.73,3.82,17.21,17.21,0,0,0-2.37,2.81,13,13,0,0,0-1.74,3.7.13.13,0,0,0,0,.13.16.16,0,0,0,.12.07,11.84,11.84,0,0,0,1.7.11,18.64,18.64,0,0,0,2.06-.13,19.56,19.56,0,0,0,3.19-.68,22.33,22.33,0,0,0,5.49-2.56,38.21,38.21,0,0,0,5-3.77,65.85,65.85,0,0,0,5.11-5,.16.16,0,0,0,0-.16.18.18,0,0,0-.12-.12A15.64,15.64,0,0,0,73.23,15.43Z"/><path class="cls-2" d="M98.61,6.93A14,14,0,0,0,93.8,6h-.61a17.65,17.65,0,0,0-4.43.57,16.08,16.08,0,0,0-4.88,2.12,13,13,0,0,0-2.2,1.82,10.3,10.3,0,0,0-1.87,2.58.17.17,0,0,0,0,.14.2.2,0,0,0,.11.09,4.41,4.41,0,0,0,1.23.12,41.61,41.61,0,0,0,4.21-.34l.17,0a37.47,37.47,0,0,0,8.53-2.7A49.49,49.49,0,0,0,98.64,7.2a.13.13,0,0,0,.06-.15A.14.14,0,0,0,98.61,6.93Z"/><path class="cls-2" d="M66.44,13.6c7.37,0,12.82-4.56,14.82-6.37l.45-.42a.25.25,0,0,0,.06-.17.25.25,0,0,0-.11-.15,11.67,11.67,0,0,0-4.15-.36C74.58,6.28,67.27,7.28,62.76,13a.18.18,0,0,0,.09.27A19.65,19.65,0,0,0,66.44,13.6Z"/><path class="cls-2" d="M20.55,116l.06,0,.07,0a.14.14,0,0,0,.08-.1,17.86,17.86,0,0,0,.85-4.17,23.77,23.77,0,0,0,0-3.76,28.62,28.62,0,0,0-1.36-7,37.35,37.35,0,0,0-2.95-7,36.86,36.86,0,0,0-5.15-7.54.12.12,0,0,0-.08,0h0a.11.11,0,0,0-.1.06c-1.12,1.66-2.41,8.63-1.67,15.28.48,3.86,1.92,9,6.06,11.88A16.21,16.21,0,0,0,20.55,116Z"/><path class="cls-2" d="M21.66,87.74a15.81,15.81,0,0,0-.31,6.92,14.4,14.4,0,0,0,1.12,3.52,12,12,0,0,0,2.35,3.41.16.16,0,0,0,.11,0,.15.15,0,0,0,.11,0,26.39,26.39,0,0,0,3.27-3.26,29.06,29.06,0,0,0,2.31-3.08,23.11,23.11,0,0,0,2.81-5.91,16.32,16.32,0,0,0,.72-6A15.14,15.14,0,0,0,32,76.47a.16.16,0,0,0-.13-.08h-.06a16.94,16.94,0,0,0-6.89,5A16.47,16.47,0,0,0,21.66,87.74Z"/><path class="cls-2" d="M52.32,160.66l-.08-.08c-1-1.1-1.86-2-2.65-2.76A56.51,56.51,0,0,0,44.07,153a37,37,0,0,0-6.31-3.87,26.07,26.07,0,0,0-8.18-2.46h0a.16.16,0,0,0-.12.06.18.18,0,0,0,0,.13c.93,6.33,12.92,16.71,25.37,17.07h0a.16.16,0,0,0,.14-.09.17.17,0,0,0,0-.18C54,162.57,53.17,161.6,52.32,160.66Z"/><path class="cls-2" d="M35.8,141.51A19.21,19.21,0,0,0,40,147a21,21,0,0,0,2.9,2.15,15.64,15.64,0,0,0,3.48,1.58h0a.2.2,0,0,0,.11,0,.18.18,0,0,0,.06-.14,36.17,36.17,0,0,0-.45-3.74l0-.13c-.18-1.08-.42-2.33-.7-3.5a47.45,47.45,0,0,0-1.88-6.27,24.92,24.92,0,0,0-2.81-5.48,14.8,14.8,0,0,0-5-4.58l-.08,0h-.05a.16.16,0,0,0-.1.08,15,15,0,0,0-1.62,7.86A16.89,16.89,0,0,0,35.8,141.51Z"/><path class="cls-2" d="M32.23,143.18a.15.15,0,0,0,.11,0,.16.16,0,0,0,.06-.13,22.28,22.28,0,0,0-.62-3.91,33.16,33.16,0,0,0-1.05-3.42,31.32,31.32,0,0,0-3.12-6.09,30.77,30.77,0,0,0-4.62-5.5,29.06,29.06,0,0,0-7.21-5,.08.08,0,0,0-.07,0h-.07a.19.19,0,0,0-.09.12c-2.68,11.57,11.19,22,12.55,22.68a16.73,16.73,0,0,0,4.1,1.33Z"/><path class="cls-2" d="M26.14,122.37a16.1,16.1,0,0,0,2.06,3A12.52,12.52,0,0,0,31.27,128a.11.11,0,0,0,.08,0h0a.14.14,0,0,0,.1-.08,26.88,26.88,0,0,0,1.75-4c.46-1.3.81-2.48,1.09-3.6a29.39,29.39,0,0,0,.85-6.51,18.09,18.09,0,0,0-.89-6,14.35,14.35,0,0,0-3.73-5.92.16.16,0,0,0-.12,0,.17.17,0,0,0-.1,0,16.35,16.35,0,0,0-6.06,13.84A16.58,16.58,0,0,0,26.14,122.37Z"/><path class="cls-2" d="M50.44,149.8h0a.31.31,0,0,0-.12.05.22.22,0,0,0,0,.16c.73,3.3,2.93,13.38,21.22,17.78h0a.16.16,0,0,0,.13-.06.17.17,0,0,0,0-.18l-.6-1.18C67.45,159.38,63.74,152.14,50.44,149.8Z"/><path class="cls-3" d="M97,89.25v.1l1.23,0h.21l1.32,0v-.1C100.09,75,104,72.73,104,72.71l0,0v-.06c0-7.52-5.44-12.47-5.49-12.5l-.06,0-.05.06A17.7,17.7,0,0,0,93,72.62v.06l.05,0S96.72,75,97,89.25Z"/><path class="cls-3" d="M112.21,75h-.16a7.91,7.91,0,0,0-6.1,2.58c-3.71,4.07-3.39,11.67-3.39,11.74v.1H104V89.3c.57-6.91,4.43-8.36,7.58-8.36a15,15,0,0,1,5.49,1.19l.13.06V82C117.19,75.27,112.27,75,112.21,75Z"/><path class="cls-3" d="M93.07,89.3v.09h1.42v-.1c0-.07.32-7.67-3.39-11.74A7.89,7.89,0,0,0,85,75h-.18s-5,.3-5,7.07v.15l.13-.06a15.06,15.06,0,0,1,5.49-1.19C88.63,80.94,92.51,82.39,93.07,89.3Z"/><path class="cls-3" d="M99.6,97.57l-1,0-1.13,0,0,.06a16.38,16.38,0,0,0-.83,8.77c0,.09.49,2.08,1.83,2.64v.09l.12,0h0l.12,0V109c1.34-.56,1.81-2.55,1.83-2.64a16.09,16.09,0,0,0-.89-8.77Z"/><path class="cls-3" d="M108.12,101.54c-.22,0-.44,0-.65,0-3.39,0-3.47-3.72-3.48-3.88v-.1l-1.44-.06v.11c0,.32.32,8.06,4.28,8.06h.1c2.79-.1,3.38-4.78,3.39-5l0-.28-.19.21A3.63,3.63,0,0,1,108.12,101.54Z"/><path class="cls-3" d="M93.07,97.67a4.88,4.88,0,0,1-1.08,3,3.09,3.09,0,0,1-2.31.91c-.21,0-.43,0-.66,0a3.61,3.61,0,0,1-2-.88l-.2-.21,0,.28c0,.2.6,4.88,3.39,5h.11c4,0,4.26-7.74,4.28-8.06v-.1l-1.54,0Z"/><path class="cls-3" d="M92.75,92.21h-.06v0a3.35,3.35,0,0,0,0,2v0h.06a37.46,37.46,0,0,0,5.47.39,36.25,36.25,0,0,0,6-.47h0v0c.62-1.37,0-1.91,0-1.93h0a52.65,52.65,0,0,0-6.35-.39A36.74,36.74,0,0,0,92.75,92.21Z"/><path class="cls-4" d="M83.53,189.78S72,192.19,56.72,184c0,0-13.89-7.46-18-5.11,0,0,2.14-14.82,20.24-10.53l25,7.8a12.7,12.7,0,0,0-.42,13.59"/><path class="cls-4" d="M49.41,184.48s-10.06-5.26-11.18-.84c0,0-1.75,3.53,9.29,7.43a8,8,0,0,1,1.89-6.59"/><path class="cls-4" d="M87.92,156.43a13.62,13.62,0,0,0,4.77,13.9A7.4,7.4,0,0,0,86,173.78s-10-3.37-5.4-13.25c0,0,3.15-4.24,7.32-4.1"/><path class="cls-4" d="M115.54,162.88c-3.16-2.31-10.42,2.63-10.42,2.63-6.13,3.81-10.31,2.73-10.31,2.73a11.77,11.77,0,0,1-3.66-11.82c4.15,3.81,10.36,2.19,10.36,2.19,7.83-2.39,10.53.3,10.53.3a10.59,10.59,0,0,1,2.61,2.77Z"/><path class="cls-5" d="M112.07,177.16S140,163.45,152.66,171l3.57,7.41s-7.22-2.54-20.08,6.21c0,0-16.19,9.24-24.44,5.29,0,0,4.41-6.4.36-12.76"/><path class="cls-4" d="M145.76,183.64s9.92-3.9,12.13,0c0,0,1.19,4.74-9.92,6.9,0,0,1.11-4.23-2.21-6.9"/><path class="cls-4" d="M108.87,183.62c0,5.44-5.12,9.84-11.43,9.84S86,189.06,86,183.62s5.12-9.84,11.44-9.84,11.43,4.41,11.43,9.84"/><path class="cls-4" d="M110.28,174.6c7.61-4.4,7-9.6,7-9.6-2.34-1.93-9.76,2.61-9.76,2.61a10.6,10.6,0,0,1-1.74,3.81,8.63,8.63,0,0,1,4.33,2.87Z"/><path class="cls-4" d="M112.07,177.16S140,163.45,152.66,171l3.57,7.41s-7.22-2.54-20.08,6.21c0,0-16.19,9.24-24.44,5.29,0,0,4.41-6.4.36-12.76"/><path class="cls-6" d="M140.63,173.43l1.55,3.33,2.13-.69-1.93-4.37s-2.9-.92-7.42.53l2.82,6.66,2-1.12-1.79-4a5.15,5.15,0,0,1,2.61-.32"/><path class="cls-6" d="M133.08,172.87a31.82,31.82,0,0,0-7.36,1.81l.46,2.32,2.66-.41-.08,3.53,2.31,2.75,2.43-1.08-2.07-2.74.23-3.23,2.42-.8Z"/><path class="cls-6" d="M123.75,175.48a43.05,43.05,0,0,0-7.34,2.76,11.66,11.66,0,0,1,.61,2.23l4.69-1.79.62,2.44-.64,3.06,2.85-.87.47-2.8Z"/><path class="cls-6" d="M117.63,181.43l2.31-.76,1,7.48a5.64,5.64,0,0,1-3.59.32s1.06-2.3.27-7"/><path class="cls-6" d="M76.89,186.47,73.81,186l1.93-8.39,3.08.37s-2.38,4.46-1.93,8.49"/><polygon class="cls-6" points="68.06 184.43 70.52 185.27 68.43 175.53 66.34 174.98 68.06 184.43"/><polygon class="cls-6" points="69.2 180.38 70.05 182.93 73.7 176.77 71.83 176.46 69.2 180.38"/><path class="cls-6" d="M53,171.32l-1.17,8-1.75-.82,1.26-7.16a2.74,2.74,0,0,1,1.66-.05"/><polygon class="cls-6" points="52.09 174.48 52.23 176.66 56.35 172.05 54.67 171.77 52.09 174.48"/><polygon class="cls-6" points="63.25 182.46 65.53 183.62 67.68 179.73 66.81 177.15 63.25 182.46"/><polygon class="cls-6" points="61.73 173.44 63.77 174.14 61.54 181.87 59.45 180.91 61.41 175.61 56.68 179.35 54.73 178.53 57.29 176.44 58.48 172.39 60.43 173.13 59.82 174.95 61.73 173.44"/><polygon class="cls-7" points="134.24 87.83 152.01 54.73 116.3 54.83 98.38 21.81 98.43 45 110.07 66.44 133.26 66.37 121.71 87.87 133.36 109.3 110.17 109.36 98.63 130.85 98.68 154.04 116.46 120.94 152.17 120.84 134.24 87.83"/><polygon class="cls-8" points="98.62 130.85 86.98 109.43 63.79 109.49 75.34 88 63.69 66.55 86.88 66.49 98.43 44.99 98.43 45 98.38 21.81 80.6 54.92 44.88 55.01 62.81 88.03 45.03 121.13 80.75 121.04 98.68 154.04 98.63 130.85 98.62 130.85"/></g></g></svg>